# xmcd
#
# Track frame offsets:
#	150
#	13978
#	29249
#	50811
#	73832
#	88298
#	110050
#	122010
#	146295
#	164145
#	181839
#	204257
#
# Disc length: 2784 seconds
#
# Revision: 0
# Processed by: cddbd v1.5.2PL0 Copyright (c) Steve Scherf et al.
# Submitted via: EasyCDDAExtractor 12.0.1.1
#
DISCID=bb0ade0c
DTITLE=The Topangas - Songs From Life's Highways
DYEAR=2009
DGENRE=Country
TTITLE0=Guess I've Gone and Done It Again
TTITLE1=That's Love
TTITLE2=All I Want, Need... Got
TTITLE3=California (Memory Suite)
TTITLE4=It's All Inside
TTITLE5=I Won't Let It Happen
TTITLE6=Island Love
TTITLE7=One In My Heart
TTITLE8=Slow and Easy
TTITLE9=Waterin' Hole
TTITLE10=Radio
TTITLE11=Cantina Jukebox Excerpt '55
EXTD=
EXTT0=
EXTT1=
EXTT2=
EXTT3=
EXTT4=
EXTT5=
EXTT6=
EXTT7=
EXTT8=
EXTT9=
EXTT10=
EXTT11=
PLAYORDER=
